<?xml version="1.0" encoding="UTF-8"?>
<svg id="Capa_2" xmlns="http://www.w3.org/2000/svg" xmlns:xlink="http://www.w3.org/1999/xlink" version="1.1" viewBox="0 0 779.6 1034.1">
  <!-- Generator: Adobe Illustrator 30.6.0, SVG Export Plug-In . SVG Version: 2.1.4 Build 109)  -->
  <defs>
    <style>
      .st0 {
        fill: #b17a2f;
      }

      .st1 {
        fill: #e3ab5a;
      }

      .st2 {
        fill: #ba7a3a;
      }

      .st3 {
        fill: #f7ecc6;
      }

      .st4 {
        fill: #b24113;
      }

      .st5 {
        fill: url(#Degradado_sin_nombre_27);
      }
    </style>
    <linearGradient id="Degradado_sin_nombre_27" data-name="Degradado sin nombre 27" x1="381.7" y1="518.4" x2="381.7" y2="803.2" gradientUnits="userSpaceOnUse">
      <stop offset="0" stop-color="#e3ab5a"/>
      <stop offset=".3" stop-color="#e1a858"/>
      <stop offset=".5" stop-color="#dea053"/>
      <stop offset=".6" stop-color="#d79249"/>
      <stop offset=".8" stop-color="#ce7f3c"/>
      <stop offset=".9" stop-color="#c3652b"/>
      <stop offset="1" stop-color="#b44717"/>
      <stop offset="1" stop-color="#b24113"/>
    </linearGradient>
  </defs>
  <polygon class="st2" points="111.2 940.8 111.2 1027.7 0 986.1 37.3 919.1 111.2 940.8"/>
  <polygon class="st2" points="306.1 996.7 306.1 1034.1 469.9 1034.1 469.9 996.7 388 949 306.1 996.7"/>
  <polygon class="st2" points="667.4 1027.7 779.6 991.5 779.6 970.2 738.9 911.9 667.4 937.8 667.4 1027.7"/>
  <polygon class="st0" points="306.1 830.2 298.3 889.6 133.2 1014.8 133.2 922.5 71.2 905.1 260.9 805.7 306.1 830.2"/>
  <polygon class="st0" points="219.6 786.4 109.9 844.4 31.2 822.5 31.2 777.3 71.2 734.8 219.6 786.4"/>
  <polygon class="st3" points="388 822.5 348.6 844.4 313.8 961.9 388 919.3 457 961.9 432.5 844.4 388 822.5"/>
  <polygon class="st0" points="519 805.7 469.9 832.8 469.9 879.3 642.8 1014.8 642.8 925.7 699.6 902.5 519 805.7"/>
  <polygon class="st0" points="662.2 844.4 740.9 822.5 740.9 765.7 699.6 734.8 557.7 789.6 662.2 844.4"/>
  <polygon class="st3" points="306.1 830.2 133.2 961.9 133.2 922.5 71.2 905.1 260.9 805.7 306.1 830.2"/>
  <polygon class="st3" points="219.6 786.4 183.1 805.7 63.9 777.3 31.2 777.3 71.2 734.8 219.6 786.4"/>
  <polygon class="st0" points="388 822.5 388 919.3 457 961.9 432.5 844.4 388 822.5"/>
  <polygon class="st3" points="519 805.7 469.9 832.8 642.8 959.2 642.8 925.7 699.6 902.5 519 805.7"/>
  <polygon class="st3" points="740.9 783.6 740.9 765.7 699.6 734.8 557.7 789.6 588.4 805.7 720.8 772.3 740.9 783.6"/>
  <path class="st1" d="M361.6,0s20.1,148,6.4,184.7c-13.7,36.7-98.1,161.6-132.4,201-6.7-20-9.9-62.3-11.5-115.8,0,0-96.4,147.2-98.7,193.5-2.3,46.2,17.2,137.8,17.2,137.8l271-304.4,43.3,47.1v184.5l119.5-50.9,14-39.4,34.4,153.9-6.4,85.2s42.1-64.1,42.1-107.9-20.4-110.9-52.3-215.2c-18.5,26.2-59,90.4-106.9,113.2,20.5-82.2,38-221.7,8.9-272.3C459.2,111.8,361.6,0,361.6,0Z"/>
  <path class="st4" d="M481.7,783.7c48.7-59.7,78.6-107.5,85.6-140.7l-31.4,24.7c-8.9-50.4-20.9-92.1-39-117-12.7,14-27.9,40.3-43.7,69.4-19.8-34.6-47.7-73.2-52.3-110.5-6.4-52,15-104.3,10.5-165.2,0,0-113.2,155.9-127.4,185.4-14.3,29.5-17.1,74.2-17.1,74.2-13.3,3.2-33.8-22.5-56.1-55.2-14.9,81.1,11.9,147.3,69.5,223.5,0,0-83.8-33.3-111.4-60.9-27.6-27.6-73.2-156.9-73.2-156.9,20.1,18.2,36.5,30.5,42.8,27.6,0,0,1.8-53.5,10.5-112.2,11.4-43.7,50.4-119.8,50.4-119.8l34.9,80.9c.4,1,1.7,1,2.3.1,14.1-24.7,157-213,164.4-232.2,7.6-19.5-12.4-122.7-12.4-122.7,0,0,95.6,117.3,103.1,133.1,7.5,15.8,10.2,85.8,9.2,128.7-1,42.9-25.8,171.6-25.8,171.6,53.5-21.8,94.1-56,121.7-102.5,0,0,42.8,107.5,42.8,154s7.6,103.6-28.5,145.5-129.3,77-129.3,77Z"/>
  <path class="st5" d="M380.1,789.6c104.4-16.7,116.3-81.4,104-148.1-12.6,20.4-38.4,29.9-53,62.8,1.6-54.7-85.6-145.9-73.2-194.7,0,0-42,73-46.3,93.3-4.3,20.3-5.9,81-5.9,81-8-8.2-18.8-5.2-30.3-23.6-1.9,62.9,43.8,111.2,104.6,129.3Z"/>
  <path class="st1" d="M294.4,76.2c-2.6,11.1-34.9,86.7-32.7,81.1,6.4,26.8,18.9,51.9,32.7,76.6-.8,2.6,12.7-32.8,20.7-60.3,6.2-21.3,4.6-26.6,0-39.6s-20.7-57.9-20.7-57.9Z"/>
  <path class="st1" d="M591.4,204.6c-11.3,14.5-20.7,31.5-28.4,50.8,1.8,27.2,1.9,53.4,0,78.3,15-13.6,28-28.4,37.8-45.1,4.3-10.7,5.6-18.5,4.2-23.8l-13.6-60.2Z"/>
</svg>