<?xml version="1.0" encoding="UTF-8"?>
<svg id="Capa_2" xmlns="http://www.w3.org/2000/svg" xmlns:xlink="http://www.w3.org/1999/xlink" version="1.1" viewBox="0 0 1060.5 1060.5">
  <!-- Generator: Adobe Illustrator 30.6.0, SVG Export Plug-In . SVG Version: 2.1.4 Build 109)  -->
  <defs>
    <style>
      .st0 {
        fill: #b24113;
      }

      .st1 {
        fill: #b17a2f;
      }

      .st2 {
        fill: #e3ab5a;
      }

      .st3 {
        font-size: 69.9px;
      }

      .st4 {
        fill: #ba7a3a;
      }

      .st5 {
        fill: #0e1f32;
      }

      .st6, .st7 {
        fill: #f7ecc6;
      }

      .st8 {
        fill: #b24113;
      }

      .st7 {
        font-family: Futura-Bold, Futura;
        font-weight: 700;
      }

      .st9 {
        fill: url(#Degradado_sin_nombre_27);
      }

      .st10 {
        font-size: 121.3px;
        letter-spacing: 0em;
      }

      .st11 {
        letter-spacing: 0em;
      }

      .st12 {
        letter-spacing: 0em;
      }
    </style>
    <linearGradient id="Degradado_sin_nombre_27" data-name="Degradado sin nombre 27" x1="530.3" y1="388.2" x2="530.3" y2="539" gradientUnits="userSpaceOnUse">
      <stop offset="0" stop-color="#e3ab5a"/>
      <stop offset=".3" stop-color="#e1a858"/>
      <stop offset=".5" stop-color="#dea053"/>
      <stop offset=".6" stop-color="#d79249"/>
      <stop offset=".8" stop-color="#ce7f3c"/>
      <stop offset=".9" stop-color="#c3652b"/>
      <stop offset="1" stop-color="#b44717"/>
      <stop offset="1" stop-color="#b24113"/>
    </linearGradient>
  </defs>
  <rect class="st5" x="15" y="14.7" width="1031" height="1031" rx="515.5" ry="515.5"/>
  <polygon class="st4" points="387.1 611.8 387.1 657.8 328.3 635.8 348 600.3 387.1 611.8"/>
  <polygon class="st4" points="490.2 641.4 490.2 661.2 576.9 661.2 576.9 641.4 533.6 616.1 490.2 641.4"/>
  <polygon class="st4" points="681.4 657.8 740.8 638.7 740.8 627.4 719.3 596.5 681.4 610.2 681.4 657.8"/>
  <polygon class="st1" points="490.2 553.3 486.1 584.7 398.7 650.9 398.7 602.1 365.9 592.9 466.3 540.3 490.2 553.3"/>
  <polygon class="st1" points="444.5 530.1 386.4 560.8 344.8 549.2 344.8 525.3 365.9 502.8 444.5 530.1"/>
  <polygon class="st6" points="533.6 549.2 512.8 560.8 494.3 622.9 533.6 600.4 570.1 622.9 557.1 560.8 533.6 549.2"/>
  <polygon class="st1" points="602.9 540.3 576.9 554.7 576.9 579.2 668.4 650.9 668.4 603.8 698.5 591.5 602.9 540.3"/>
  <polygon class="st1" points="678.7 560.8 720.3 549.2 720.3 519.2 698.5 502.8 623.4 531.8 678.7 560.8"/>
  <polygon class="st6" points="490.2 553.3 398.7 622.9 398.7 602.1 365.9 592.9 466.3 540.3 490.2 553.3"/>
  <polygon class="st6" points="444.5 530.1 425.1 540.3 362.1 525.3 344.8 525.3 365.9 502.8 444.5 530.1"/>
  <polygon class="st1" points="533.6 549.2 533.6 600.4 570.1 622.9 557.1 560.8 533.6 549.2"/>
  <polygon class="st6" points="602.9 540.3 576.9 554.7 668.4 621.6 668.4 603.8 698.5 591.5 602.9 540.3"/>
  <polygon class="st6" points="720.3 528.6 720.3 519.2 698.5 502.8 623.4 531.8 639.6 540.3 709.7 522.6 720.3 528.6"/>
  <path class="st2" d="M519.6,113.9s10.6,78.3,3.4,97.7c-7.3,19.4-51.9,85.5-70,106.4-3.5-10.6-5.3-33-6.1-61.3,0,0-51,77.9-52.2,102.4-1.2,24.5,9.1,72.9,9.1,72.9l143.4-161.1,22.9,24.9v97.6l63.2-26.9,7.4-20.9,18.2,81.5-3.4,45.1s22.3-33.9,22.3-57.1-10.8-58.7-27.7-113.9c-9.8,13.9-31.2,47.8-56.6,59.9,10.9-43.5,20.1-117.3,4.7-144.1-27.1-44-78.8-103.1-78.8-103.1Z"/>
  <path class="st8" d="M583.2,528.6c25.8-31.6,41.6-56.9,45.3-74.5l-16.6,13.1c-4.7-26.7-11.1-48.7-20.6-61.9-6.7,7.4-14.8,21.3-23.1,36.7-10.5-18.3-25.3-38.8-27.7-58.5-3.4-27.5,7.9-55.2,5.5-87.4,0,0-59.9,82.5-67.4,98.1-7.5,15.6-9.1,39.3-9.1,39.3-7,1.7-17.9-11.9-29.7-29.2-7.9,42.9,6.3,78,36.8,118.3,0,0-44.3-17.6-58.9-32.2-14.6-14.6-38.7-83-38.7-83,10.6,9.6,19.3,16.2,22.6,14.6,0,0,1-28.3,5.5-59.4,6-23.1,26.7-63.4,26.7-63.4l18.5,42.8c.2.5.9.5,1.2,0,7.4-13.1,83.1-112.7,87-122.9,4-10.3-6.5-64.9-6.5-64.9,0,0,50.6,62.1,54.6,70.4,4,8.4,5.4,45.4,4.9,68.1-.5,22.7-13.6,90.8-13.6,90.8,28.3-11.6,49.8-29.6,64.4-54.2,0,0,22.6,56.9,22.6,81.5s4,54.8-15.1,77c-19.1,22.1-68.4,40.8-68.4,40.8Z"/>
  <path class="st9" d="M529.4,531.8c55.2-8.8,61.6-43.1,55.1-78.4-6.7,10.8-20.3,15.8-28,33.2.8-29-45.3-77.2-38.7-103,0,0-22.2,38.6-24.5,49.4-2.3,10.7-3.1,42.9-3.1,42.9-4.2-4.4-9.9-2.7-16-12.5-1,33.3,23.2,58.8,55.4,68.4Z"/>
  <path class="st2" d="M484.1,154.3c-1.4,5.9-18.4,45.9-17.3,42.9,3.4,14.2,10,27.4,17.3,40.5-.4,1.4,6.7-17.3,10.9-31.9,3.3-11.3,2.5-14.1,0-21s-10.9-30.6-10.9-30.6Z"/>
  <path class="st2" d="M641.2,222.2c-6,7.7-11,16.6-15,26.9,1,14.4,1,28.2,0,41.5,7.9-7.2,14.8-15,20-23.9,2.3-5.6,3-9.8,2.2-12.6l-7.2-31.9Z"/>
  <path class="st0" d="M530.3,0C237.4,0,0,237.4,0,530.3s237.4,530.3,530.3,530.3,530.3-237.4,530.3-530.3S823.1,0,530.3,0ZM530.3,1031.7c-276.9,0-501.4-224.5-501.4-501.4S253.3,28.8,530.3,28.8s501.4,224.5,501.4,501.4-224.5,501.4-501.4,501.4Z"/>
  <text class="st7" transform="translate(221.2 818.5)"><tspan class="st10"><tspan x="0" y="0">CAMPFIRE</tspan></tspan><tspan class="st3"><tspan class="st12" x="10.6" y="73.1">GAMES STUDI</tspan><tspan class="st11" x="513.2" y="73.1">O</tspan><tspan class="st12" x="573.7" y="73.1">S</tspan></tspan></text>
</svg>