<?xml version="1.0" encoding="UTF-8"?>
<svg id="Capa_1" xmlns="http://www.w3.org/2000/svg" version="1.1" viewBox="0 0 1060.5 1060.5">
  <!-- Generator: Adobe Illustrator 30.6.0, SVG Export Plug-In . SVG Version: 2.1.4 Build 109)  -->
  <defs>
    <style>
      .st0 {
        fill: #fff;
      }
    </style>
  </defs>
  <rect class="st0" x="15" y="14.7" width="1031" height="1031" rx="515.5" ry="515.5"/>
  <path d="M530.3,0C237.4,0,0,237.4,0,530.3s237.4,530.3,530.3,530.3,530.3-237.4,530.3-530.3S823.1,0,530.3,0ZM530.3,1031.7c-276.9,0-501.4-224.5-501.4-501.4S253.3,28.8,530.3,28.8s501.4,224.5,501.4,501.4-224.5,501.4-501.4,501.4Z"/>
  <polygon points="387.1 611.8 387.1 657.8 328.3 635.8 348 600.3 387.1 611.8"/>
  <polygon points="490.2 641.4 490.2 661.2 576.9 661.2 576.9 641.4 533.6 616.1 490.2 641.4"/>
  <polygon points="681.4 657.8 740.8 638.7 740.8 627.4 719.3 596.5 681.4 610.2 681.4 657.8"/>
  <polygon points="490.2 553.3 486.1 584.7 398.7 650.9 398.7 602.1 365.9 592.9 466.3 540.3 490.2 553.3"/>
  <polygon points="444.5 530.1 386.4 560.8 344.8 549.2 344.8 525.3 365.9 502.8 444.5 530.1"/>
  <polygon points="533.6 549.2 512.8 560.8 494.3 622.9 533.6 600.4 570.1 622.9 557.1 560.8 533.6 549.2"/>
  <polygon points="602.9 540.3 576.9 554.7 576.9 579.2 668.4 650.9 668.4 603.8 698.5 591.5 602.9 540.3"/>
  <polygon points="678.7 560.8 720.3 549.2 720.3 519.2 698.5 502.8 623.4 531.8 678.7 560.8"/>
  <path class="st0" d="M519.6,113.9s10.6,78.3,3.4,97.7c-7.3,19.4-51.9,85.5-70,106.4-3.5-10.6-5.3-33-6.1-61.3,0,0-51,77.9-52.2,102.4-1.2,24.5,9.1,72.9,9.1,72.9l143.4-161.1,22.9,24.9v97.6l63.2-26.9,7.4-20.9,18.2,81.5-3.4,45.1s22.3-33.9,22.3-57.1-10.8-58.7-27.7-113.9c-9.8,13.9-31.2,47.8-56.6,59.9,10.9-43.5,20.1-117.3,4.7-144.1-27.1-44-78.8-103.1-78.8-103.1Z"/>
  <path d="M583.2,528.6c25.8-31.6,41.6-56.9,45.3-74.5l-16.6,13.1c-4.7-26.7-11.1-48.7-20.6-61.9-6.7,7.4-14.8,21.3-23.1,36.7-10.5-18.3-25.3-38.8-27.7-58.5-3.4-27.5,7.9-55.2,5.5-87.4,0,0-59.9,82.5-67.4,98.1-7.5,15.6-9.1,39.3-9.1,39.3-7,1.7-17.9-11.9-29.7-29.2-7.9,42.9,6.3,78,36.8,118.3,0,0-44.3-17.6-58.9-32.2-14.6-14.6-38.7-83-38.7-83,10.6,9.6,19.3,16.2,22.6,14.6,0,0,1-28.3,5.5-59.4,6-23.1,26.7-63.4,26.7-63.4l18.5,42.8c.2.5.9.5,1.2,0,7.4-13.1,83.1-112.7,87-122.9,4-10.3-6.5-64.9-6.5-64.9,0,0,50.6,62.1,54.6,70.4,4,8.4,5.4,45.4,4.9,68.1-.5,22.7-13.6,90.8-13.6,90.8,28.3-11.6,49.8-29.6,64.4-54.2,0,0,22.6,56.9,22.6,81.5s4,54.8-15.1,77c-19.1,22.1-68.4,40.8-68.4,40.8Z"/>
  <path d="M529.4,531.8c55.2-8.8,61.6-43.1,55.1-78.4-6.7,10.8-20.3,15.8-28,33.2.8-29-45.3-77.2-38.7-103,0,0-22.2,38.6-24.5,49.4-2.3,10.7-3.1,42.9-3.1,42.9-4.2-4.4-9.9-2.7-16-12.5-1,33.3,23.2,58.8,55.4,68.4Z"/>
  <path d="M484.1,154.3c-1.4,5.9-18.4,45.9-17.3,42.9,3.4,14.2,10,27.4,17.3,40.5-.4,1.4,6.7-17.3,10.9-31.9,3.3-11.3,2.5-14.1,0-21-2.5-6.9-10.9-30.6-10.9-30.6Z"/>
  <path d="M641.2,222.2c-6,7.7-11,16.6-15,26.9,1,14.4,1,28.2,0,41.5,7.9-7.2,14.8-15,20-23.9,2.3-5.6,3-9.8,2.2-12.6l-7.2-31.9Z"/>
  <g>
    <path d="M295.5,757.6c-5.5-6.7-12.3-10.1-20.4-10.1s-6.9.6-9.9,1.9c-3,1.3-5.6,3.1-7.8,5.3-2.2,2.2-3.9,4.9-5.2,7.9-1.3,3.1-1.9,6.4-1.9,9.9s.6,7,1.9,10.1c1.3,3.1,3,5.7,5.2,8,2.2,2.3,4.8,4,7.8,5.3,3,1.3,6.2,1.9,9.7,1.9,7.6,0,14.4-3.2,20.5-9.7v28.1l-2.4.9c-3.6,1.3-7,2.2-10.2,2.8s-6.3.9-9.3.9c-6.3,0-12.4-1.2-18.1-3.6-5.8-2.4-10.9-5.7-15.3-10.1-4.4-4.3-7.9-9.5-10.6-15.4s-4-12.4-4-19.5,1.3-13.5,3.9-19.3c2.6-5.9,6.1-10.9,10.6-15.2,4.4-4.2,9.5-7.6,15.3-9.9,5.8-2.4,11.9-3.6,18.3-3.6s7.2.4,10.7,1.2c3.5.8,7.2,2,11.1,3.6v28.4Z"/>
    <path d="M365.8,802.6h-34l-5.5,15.9h-25.4l34.8-91.5h26l34.8,91.5h-25.4l-5.5-15.9ZM359.4,784.6l-10.7-30.4-10.7,30.4h21.3Z"/>
    <path d="M399.8,818.5l15.5-91.5h23.5l18.3,48.8,18.2-48.8h23.5l15.5,91.5h-23.7l-7.9-52.6-21.6,52.6h-9.5l-20.5-52.6-7.9,52.6h-23.7Z"/>
    <path d="M550.2,818.5h-23.8v-91.5h37.8c10.3,0,18.1,2.7,23.6,8,5.5,5.3,8.2,12.9,8.2,22.6s-2.7,17.2-8.2,22.6c-5.5,5.3-13.3,8-23.6,8h-14.1v30.3ZM550.2,769h7.9c8.7,0,13.1-3.8,13.1-11.4s-4.4-11.4-13.1-11.4h-7.9v22.8Z"/>
    <path d="M658.1,747.2h-28.6v15.3h26.1v20.1h-26.1v35.9h-23.8v-91.5h52.4v20.1Z"/>
    <path d="M693,727.1v91.5h-23.8v-91.5h23.8Z"/>
    <path d="M785.2,818.5h-29.6l-22.7-35.2v35.2h-23.8v-91.5h37c5.1,0,9.5.7,13.3,2.2,3.8,1.5,6.9,3.5,9.4,6.1,2.5,2.6,4.3,5.6,5.6,9,1.3,3.4,1.9,7,1.9,10.9,0,7-1.7,12.6-5,16.9-3.4,4.3-8.3,7.3-14.9,8.8l28.7,37.5ZM732.9,767.9h4.5c4.7,0,8.3-1,10.8-2.9,2.5-1.9,3.8-4.7,3.8-8.4s-1.3-6.4-3.8-8.4c-2.5-1.9-6.1-2.9-10.8-2.9h-4.5v22.6Z"/>
    <path d="M844.1,747.2h-28.3v15.3h26.7v20.1h-26.7v15.8h28.3v20.1h-52v-91.5h52v20.1Z"/>
    <path d="M262.3,862.1h27.2c0,2.8-.1,5.3-.3,7.6-.2,2.3-.7,4.4-1.4,6.4-1,2.8-2.3,5.2-4,7.3-1.7,2.1-3.6,3.9-5.9,5.3-2.3,1.4-4.7,2.5-7.4,3.3-2.7.7-5.5,1.1-8.5,1.1s-7.8-.7-11.2-2c-3.4-1.4-6.3-3.3-8.7-5.7-2.4-2.4-4.3-5.4-5.7-8.8-1.4-3.4-2-7.2-2-11.4s.7-7.9,2-11.3c1.3-3.4,3.2-6.4,5.7-8.8,2.4-2.4,5.4-4.3,8.8-5.7,3.4-1.4,7.3-2,11.5-2s10.3,1.2,14.5,3.6c4.1,2.4,7.4,6.1,9.9,11l-13,5.4c-1.2-2.9-2.8-5-4.7-6.2-1.9-1.3-4.1-1.9-6.6-1.9s-3.9.4-5.6,1.2-3.1,1.9-4.3,3.3-2.1,3.1-2.8,5.1-1,4.2-1,6.7.3,4.3.9,6.2c.6,1.9,1.5,3.6,2.6,5,1.2,1.4,2.6,2.5,4.3,3.3,1.7.8,3.7,1.2,6,1.2s2.7-.2,3.9-.5c1.3-.3,2.4-.8,3.4-1.5,1-.7,1.8-1.5,2.5-2.6.7-1.1,1.1-2.4,1.3-3.9h-11.3v-10.6Z"/>
    <path d="M327.2,882.4h-19.6l-3.1,9.2h-14.6l20.1-52.7h15l20.1,52.7h-14.6l-3.1-9.2ZM323.5,872l-6.2-17.6-6.2,17.6h12.3Z"/>
    <path d="M347.1,891.6l8.9-52.7h13.6l10.6,28.1,10.5-28.1h13.6l9,52.7h-13.6l-4.5-30.3-12.4,30.3h-5.5l-11.8-30.3-4.5,30.3h-13.6Z"/>
    <path d="M450.5,850.5h-16.3v8.8h15.4v11.6h-15.4v9.1h16.3v11.6h-30v-52.7h30v11.6Z"/>
    <path d="M487.9,852.4c-1.5-1.2-3-2.1-4.5-2.7-1.5-.6-2.9-.9-4.3-.9s-3.2.4-4.3,1.3c-1.1.8-1.7,1.9-1.7,3.3s.3,1.7.8,2.3c.6.6,1.3,1.1,2.2,1.6.9.4,1.9.8,3.1,1.2,1.1.3,2.3.7,3.4,1,4.5,1.5,7.8,3.5,9.8,6,2.1,2.5,3.1,5.7,3.1,9.8s-.5,5.2-1.4,7.3c-.9,2.2-2.2,4.1-4,5.6-1.7,1.6-3.9,2.8-6.4,3.6-2.5.9-5.4,1.3-8.6,1.3-6.7,0-12.8-2-18.5-5.9l5.9-11c2.1,1.8,4.1,3.2,6.1,4.1,2,.9,4,1.3,5.9,1.3s3.9-.5,5-1.5c1.1-1,1.6-2.2,1.6-3.5s-.1-1.5-.4-2.1-.7-1.1-1.4-1.6c-.7-.5-1.5-.9-2.6-1.4s-2.3-.9-3.8-1.4c-1.8-.6-3.5-1.2-5.2-1.9s-3.2-1.6-4.5-2.7c-1.3-1.1-2.4-2.5-3.2-4.2-.8-1.7-1.2-3.9-1.2-6.5s.4-5,1.3-7.1c.9-2.1,2.1-3.9,3.6-5.5,1.6-1.5,3.5-2.7,5.7-3.5,2.3-.8,4.8-1.3,7.6-1.3s5.3.4,8.2,1.1c2.8.7,5.6,1.8,8.2,3.2l-5.5,10.7Z"/>
    <path d="M556.9,852.4c-1.5-1.2-3-2.1-4.5-2.7-1.5-.6-2.9-.9-4.3-.9s-3.2.4-4.3,1.3c-1.1.8-1.7,1.9-1.7,3.3s.3,1.7.8,2.3c.6.6,1.3,1.1,2.2,1.6.9.4,1.9.8,3.1,1.2,1.1.3,2.3.7,3.4,1,4.5,1.5,7.7,3.5,9.8,6,2.1,2.5,3.1,5.7,3.1,9.8s-.5,5.2-1.4,7.3c-.9,2.2-2.2,4.1-4,5.6-1.7,1.6-3.9,2.8-6.4,3.6-2.5.9-5.4,1.3-8.6,1.3-6.7,0-12.8-2-18.5-5.9l5.9-11c2,1.8,4.1,3.2,6.1,4.1,2,.9,4,1.3,5.9,1.3s3.9-.5,5-1.5c1.1-1,1.6-2.2,1.6-3.5s-.1-1.5-.4-2.1c-.3-.6-.7-1.1-1.4-1.6-.7-.5-1.5-.9-2.6-1.4-1-.4-2.3-.9-3.8-1.4-1.8-.6-3.5-1.2-5.2-1.9s-3.2-1.6-4.5-2.7c-1.3-1.1-2.4-2.5-3.2-4.2s-1.2-3.9-1.2-6.5.4-5,1.3-7.1c.9-2.1,2.1-3.9,3.6-5.5,1.6-1.5,3.5-2.7,5.7-3.5,2.3-.8,4.8-1.3,7.6-1.3s5.3.4,8.2,1.1c2.8.7,5.6,1.8,8.2,3.2l-5.5,10.7Z"/>
    <path d="M592,850.5v41.1h-13.7v-41.1h-11.3v-11.6h36.2v11.6h-11.3Z"/>
    <path d="M621.7,838.9v28.7c0,1.5,0,3.1.2,4.7.1,1.6.5,3.1,1,4.4.6,1.3,1.5,2.4,2.8,3.2,1.3.8,3,1.2,5.3,1.2s4-.4,5.3-1.2c1.2-.8,2.2-1.9,2.8-3.2.6-1.3,1-2.8,1.1-4.4.1-1.6.2-3.2.2-4.7v-28.7h13.6v30.6c0,8.2-1.9,14.2-5.6,18-3.8,3.8-9.5,5.7-17.3,5.7s-13.6-1.9-17.3-5.7-5.7-9.8-5.7-18v-30.6h13.7Z"/>
    <path d="M663.6,838.9h20.3c3.6,0,7,.7,10.1,2.2s5.9,3.4,8.3,5.8c2.4,2.4,4.2,5.2,5.6,8.4,1.4,3.2,2,6.5,2,10s-.7,6.8-2,10c-1.3,3.2-3.2,6-5.5,8.4-2.4,2.4-5.1,4.4-8.3,5.8-3.1,1.4-6.5,2.2-10.2,2.2h-20.3v-52.7ZM677.3,880h3.1c2.4,0,4.5-.4,6.4-1.1s3.4-1.8,4.7-3.1c1.3-1.3,2.3-2.9,2.9-4.6.7-1.8,1-3.8,1-5.9s-.3-4.1-1-5.9c-.7-1.8-1.7-3.4-3-4.7-1.3-1.3-2.9-2.3-4.7-3.1-1.9-.7-4-1.1-6.3-1.1h-3.1v29.5Z"/>
    <path d="M730.8,838.9v52.7h-13.7v-52.7h13.7Z"/>
    <path d="M738.1,865.2c0-3.9.7-7.6,2.2-10.9,1.4-3.4,3.4-6.3,6-8.8,2.6-2.5,5.6-4.5,9.2-5.9,3.6-1.4,7.5-2.1,11.8-2.1s8.2.7,11.7,2.1c3.6,1.4,6.7,3.4,9.3,5.9,2.6,2.5,4.6,5.5,6,8.8,1.4,3.4,2.2,7,2.2,10.9s-.7,7.6-2.2,10.9c-1.4,3.4-3.5,6.3-6,8.8-2.6,2.5-5.7,4.5-9.3,5.9-3.6,1.4-7.5,2.1-11.7,2.1s-8.2-.7-11.8-2.1-6.6-3.4-9.2-5.9c-2.6-2.5-4.6-5.5-6-8.8-1.4-3.4-2.2-7-2.2-10.9ZM752.4,865.2c0,2.1.4,4,1.2,5.8.8,1.8,1.9,3.3,3.2,4.6,1.4,1.3,2.9,2.3,4.7,3,1.8.7,3.7,1.1,5.7,1.1s3.9-.4,5.7-1.1c1.8-.7,3.4-1.7,4.8-3,1.4-1.3,2.5-2.8,3.3-4.6.8-1.8,1.2-3.7,1.2-5.8s-.4-4-1.2-5.8c-.8-1.8-1.9-3.3-3.3-4.6-1.4-1.3-3-2.3-4.8-3-1.8-.7-3.7-1.1-5.7-1.1s-3.9.4-5.7,1.1c-1.8.7-3.4,1.7-4.7,3-1.4,1.3-2.4,2.8-3.2,4.6-.8,1.8-1.2,3.7-1.2,5.8Z"/>
    <path d="M829.9,852.4c-1.5-1.2-3-2.1-4.5-2.7-1.5-.6-2.9-.9-4.3-.9s-3.2.4-4.3,1.3c-1.1.8-1.7,1.9-1.7,3.3s.3,1.7.8,2.3c.6.6,1.3,1.1,2.2,1.6.9.4,1.9.8,3.1,1.2,1.1.3,2.3.7,3.4,1,4.5,1.5,7.7,3.5,9.8,6,2.1,2.5,3.1,5.7,3.1,9.8s-.5,5.2-1.4,7.3c-.9,2.2-2.2,4.1-4,5.6-1.7,1.6-3.9,2.8-6.4,3.6-2.5.9-5.4,1.3-8.6,1.3-6.7,0-12.8-2-18.5-5.9l5.9-11c2,1.8,4.1,3.2,6.1,4.1,2,.9,4,1.3,5.9,1.3s3.9-.5,5-1.5c1.1-1,1.6-2.2,1.6-3.5s-.1-1.5-.4-2.1c-.3-.6-.7-1.1-1.4-1.6-.7-.5-1.5-.9-2.6-1.4-1-.4-2.3-.9-3.8-1.4-1.8-.6-3.5-1.2-5.2-1.9s-3.2-1.6-4.5-2.7c-1.3-1.1-2.4-2.5-3.2-4.2s-1.2-3.9-1.2-6.5.4-5,1.3-7.1c.9-2.1,2.1-3.9,3.6-5.5,1.6-1.5,3.5-2.7,5.7-3.5,2.3-.8,4.8-1.3,7.6-1.3s5.3.4,8.2,1.1c2.8.7,5.6,1.8,8.2,3.2l-5.5,10.7Z"/>
  </g>
</svg>